<svg width="211" height="55" viewBox="0 0 211 55" fill="none" xmlns="http://www.w3.org/2000/svg">
<g clip-path="url(#clip0_805_8512)">
<path fill-rule="evenodd" clip-rule="evenodd" d="M12.9526 36.6246C12.6089 36.2702 11.0296 34.6634 10.4096 33.9904C9.95093 33.4924 9.87022 33.06 9.87022 32.8242C9.87022 32.1138 10.4472 31.5396 11.1621 31.5396C11.3933 31.5396 11.5988 31.6004 11.7815 31.7034C11.2665 31.3992 10.8447 31.2742 10.0753 31.3258C8.55987 31.4276 7.47009 32.2038 6.83595 32.7222C5.13195 34.1152 2.47402 36.345 0.961408 37.7668C-0.165804 38.8262 -0.25677 40.3268 0.453649 41.2338C0.953961 41.8724 2.65031 43.8669 3.34725 44.6859C4.6737 46.2443 6.54595 47.6426 8.90462 47.6426C12.2047 47.6426 14.9106 45.1266 15.1917 41.9202C15.21 41.7398 15.2219 41.5536 15.2219 41.366C15.2219 39.7834 14.5523 38.301 12.9526 36.6246Z" fill="#FFCD45"/>
<path fill-rule="evenodd" clip-rule="evenodd" d="M35.1228 42.5021C32.6387 44.9717 28.6135 44.9717 26.1292 42.5021L4.88066 21.3835C2.39802 18.9191 2.39802 14.9167 4.88066 12.4505C7.3631 9.9833 11.3869 9.9833 13.8724 12.4505L35.1228 33.5657C37.6022 36.0335 37.6022 40.0357 35.1228 42.5021Z" fill="#4E277A"/>
<path fill-rule="evenodd" clip-rule="evenodd" d="M30.8607 22.374C31.0525 22.591 31.6206 23.2418 31.6206 23.2418C31.7537 23.4042 31.8702 23.5822 31.9803 23.7674C32.0875 23.9558 32.1602 24.1706 32.1602 24.4028C32.1602 25.1144 31.5798 25.6902 30.867 25.6902C30.6399 25.6902 30.4316 25.6254 30.2487 25.5266C30.7639 25.8292 31.1902 25.953 31.9547 25.9036C33.2089 25.8254 34.8044 24.7984 35.1971 24.507C36.9486 23.1886 39.2072 21.2508 41.0718 19.461L41.0763 19.4362C41.6673 18.9746 42.0556 18.2648 42.0556 17.4618C42.0556 16.845 41.8153 16.4454 41.578 15.9954C41.578 15.9954 40.7975 14.7598 40.4661 14.3158C39.099 12.4848 37.2672 11.3556 34.9055 11.3556C31.6088 11.3556 28.467 13.9572 28.6149 17.172C28.7276 19.6232 29.8891 21.2702 30.8607 22.374Z" fill="#FFCD45"/>
<path fill-rule="evenodd" clip-rule="evenodd" d="M30.5057 25.5282C30.8124 25.47 30.994 25.1116 30.8499 24.7804C30.6985 24.4324 29.7176 23.3694 29.7176 23.3694C28.0867 21.5122 27.2024 19.513 27.0977 17.2396C27.017 15.4862 27.692 13.6846 28.9881 12.3352C29.9732 11.3106 31.316 10.6824 32.8151 10.298L24.4146 1.96922C21.9322 -0.501783 17.9086 -0.501783 15.4243 1.96922C12.9435 4.43322 12.9435 8.43262 15.4243 10.9014L29.7096 25.0634C30.1117 25.4942 30.3214 25.5628 30.5057 25.5282Z" fill="#4E277A"/>
<path fill-rule="evenodd" clip-rule="evenodd" d="M24.5883 44.0525C24.5451 44.0095 12.5903 32.1403 12.4271 31.9663C12.2548 31.7825 12.0525 31.5437 11.7676 31.6119C11.2035 31.7469 11.354 32.3723 11.5762 32.7317C11.8247 33.1335 12.219 33.4171 12.5432 33.7531C12.9652 34.1901 13.3899 34.6247 13.8137 35.0597C13.8137 35.0597 14.1995 35.4565 14.2069 35.4639C16.04 37.3835 16.8941 39.2203 16.8941 41.2439C16.8941 41.4815 16.879 41.7193 16.8564 41.9465C16.5705 45.2159 14.2969 47.8097 11.2701 48.6855L15.6012 52.9899C18.0823 55.4539 22.1073 55.4539 24.5883 52.9899C27.0726 50.5191 27.0726 46.5211 24.5883 44.0525Z" fill="#4E277A"/>
<path fill-rule="evenodd" clip-rule="evenodd" d="M161.682 38.4151V38.52C161.682 39.3901 160.972 40.096 160.095 40.096H148.569C147.693 40.096 146.983 39.3901 146.983 38.52V17.1513C146.983 16.2807 147.693 15.5751 148.569 15.5751H159.919C160.795 15.5751 161.505 16.2807 161.505 17.1513V17.2924C161.505 18.1632 160.795 18.8688 159.919 18.8688H150.651C150.494 18.8688 150.367 18.9951 150.367 19.1508V26.1175C150.367 26.2734 150.494 26.3998 150.651 26.3998H157.627C158.503 26.3998 159.213 27.1054 159.213 27.9757V28.0794C159.213 28.95 158.503 29.6556 157.627 29.6556H150.651C150.494 29.6556 150.367 29.7817 150.367 29.9374V36.5571C150.367 36.7128 150.494 36.8391 150.651 36.8391H160.095C160.972 36.8391 161.682 37.5447 161.682 38.4151Z" fill="#FFCD45"/>
<path fill-rule="evenodd" clip-rule="evenodd" d="M176.195 32.2232V30.7512C175.809 28.0545 173.551 25.9887 170.839 25.9887C167.878 25.9887 165.447 28.4741 165.447 31.4513C165.447 34.4999 167.878 36.9854 170.839 36.9854C173.551 36.9854 175.809 34.9201 176.195 32.2232ZM179.403 24.2012V38.5982C179.403 39.4683 178.693 40.1742 177.817 40.1742H177.782C176.906 40.1742 176.195 39.4683 176.195 38.5982V38.2134C174.751 39.4392 172.919 40.1742 170.839 40.1742C166.186 40.1742 162.379 36.3219 162.379 31.4513C162.379 26.6895 166.186 22.8002 170.839 22.8002C172.919 22.8002 174.751 23.5358 176.195 24.7615V24.2012C176.195 23.3306 176.906 22.625 177.782 22.625H177.817C178.693 22.625 179.403 23.3306 179.403 24.2012Z" fill="#FFCD45"/>
<path fill-rule="evenodd" clip-rule="evenodd" d="M208.204 40.1021H208.171C207.295 40.1021 206.584 39.3967 206.584 38.5259V31.1996C206.584 29.6156 205.955 28.0484 204.717 27.0518C203.827 26.3357 202.717 25.9171 201.508 25.9171C200.379 25.9171 199.374 26.2669 198.551 26.8796C197.303 27.8074 196.678 29.3525 196.678 30.9014V38.5621C196.678 39.4322 195.967 40.1381 195.092 40.1381H195.059C194.183 40.1381 193.472 39.4322 193.472 38.5621V24.2012C193.472 23.3306 194.183 22.625 195.059 22.625H195.092C195.967 22.625 196.678 23.3306 196.678 24.2012V24.5293C197.923 23.3404 199.711 22.625 201.508 22.625C205.914 22.625 209.404 26.3021 209.789 30.7856V38.5259C209.789 39.3967 209.079 40.1021 208.204 40.1021Z" fill="#FFCD45"/>
<path fill-rule="evenodd" clip-rule="evenodd" d="M189.145 23.0272C187.833 23.3405 186.772 23.7683 185.627 24.922V24.2012C185.627 23.3307 184.916 22.625 184.04 22.625C183.165 22.625 182.454 23.3307 182.454 24.2012V38.5982C182.454 39.4688 183.165 40.1742 184.04 40.1742C184.916 40.1742 185.627 39.4688 185.627 38.5982V31.3814C185.854 28.9679 187.302 26.8768 189.471 26.1635C189.471 26.1635 191.041 25.8703 191.091 24.5327C191.128 23.4901 190.165 22.7833 189.145 23.0272Z" fill="#FFCD45"/>
<path fill-rule="evenodd" clip-rule="evenodd" d="M80.2793 25.5039C82.454 26.2984 84.0417 27.271 85.0458 28.4275C86.093 29.6265 86.6187 31.0883 86.6187 32.8068C86.6187 34.8915 85.8765 36.6191 84.3976 37.9898C82.6297 39.6182 80.0729 40.4336 76.7254 40.4336C75.5763 40.4336 74.4198 40.3263 73.3029 40.0508C72.2702 39.7959 71.0666 39.4322 70.4018 38.5511C69.7901 37.7405 69.7181 36.5384 70.2322 35.6621C70.8302 34.643 72.1182 34.3305 73.2276 34.4617C75.2254 34.6984 77.4516 35.9876 79.3726 34.6758C80.3741 34.0245 80.3458 32.4762 79.4746 31.7568C78.9284 31.3152 77.971 30.8545 76.6074 30.3798C72.105 28.783 69.8533 26.3586 69.8533 23.1102C69.8533 20.9169 70.719 19.137 72.4528 17.7805C74.1711 16.4086 76.4239 15.7251 79.2005 15.7251C79.3489 15.7251 79.4974 15.7282 79.6456 15.7335C81.1277 15.7884 82.8209 16.0129 84.0784 16.8541C86.5008 18.4744 84.4908 22.0461 81.8137 21.3105C80.26 20.8834 77.2978 20.101 76.2999 21.973C75.8765 22.7676 76.2462 23.7846 76.9712 24.2667C77.497 24.6165 78.7177 24.9178 80.2793 25.5039Z" fill="#4E277A"/>
<path fill-rule="evenodd" clip-rule="evenodd" d="M107.559 20.6437C106.94 21.2555 106.174 21.562 105.257 21.562C104.342 21.562 103.564 21.2423 102.926 20.6098C102.31 19.9966 102.003 19.265 102.003 18.4102C102.003 17.5516 102.31 16.8251 102.926 16.2245C103.564 15.5902 104.342 15.275 105.257 15.275C106.174 15.275 106.947 15.5902 107.572 16.2245C108.201 16.8251 108.513 17.5516 108.513 18.4102C108.513 19.265 108.194 20.0095 107.559 20.6437Z" fill="#4E277A"/>
<path fill-rule="evenodd" clip-rule="evenodd" d="M97.1168 22.6706H95.7605V21.3768C95.7605 19.694 94.3436 18.3402 92.6306 18.4292C91.0248 18.5129 89.8201 19.9454 89.8201 21.5438V22.6706H89.2973C88.0617 22.6706 87.0602 23.666 87.0602 24.8936V24.9783C87.0602 26.2059 88.0617 27.2012 89.2973 27.2012H89.8201V31.5686C89.8308 33.4805 90.0556 35.2689 90.5353 36.5712C90.7813 37.2392 91.1567 38.0534 91.8504 38.6954C93.6134 40.3266 97.0281 41.1464 98.1753 38.3712C98.6973 37.109 98.1806 35.9802 97.1236 35.2257C96.8579 35.0361 96.597 34.841 96.4014 34.5743C95.8364 33.8036 95.7318 32.7506 95.7368 31.8269L95.759 27.2012H97.1168C98.3522 27.2012 99.3539 26.2059 99.3539 24.9783V24.8936C99.3539 23.666 98.3522 22.6706 97.1168 22.6706Z" fill="#4E277A"/>
<path fill-rule="evenodd" clip-rule="evenodd" d="M120.205 40.408C117.6 40.408 115.512 39.6837 113.822 38.1949C111.731 36.3495 110.758 34.123 110.758 31.1875C110.758 28.5352 111.732 26.2029 113.501 24.6215C115.302 23.0115 117.139 22.325 119.649 22.325C119.992 22.325 120.345 22.3373 120.711 22.3607C121.358 22.4018 124.605 22.7216 125.008 25.0083C125.171 25.9368 124.749 26.7669 123.934 27.1234C123.649 27.2484 123.342 27.3085 122.992 27.3085C122.545 27.3085 122.1 27.2104 121.671 27.1167C121.275 27.0298 120.901 26.9472 120.555 26.9472C119.079 26.9472 118.133 27.3295 117.289 28.2657C116.501 29.1393 116.192 30.3405 116.315 32.0446C116.492 34.4772 118.433 35.79 120.17 35.79C120.495 35.79 120.818 35.7465 121.129 35.662C121.193 35.644 121.283 35.6151 121.392 35.5806C121.811 35.4456 122.515 35.2182 123.121 35.196H123.125C124.114 35.196 124.851 35.6841 125.194 36.501C125.533 37.3077 125.381 38.2026 124.805 38.7808C123.781 39.8085 121.865 40.3756 120.501 40.4046L120.205 40.408Z" fill="#4E277A"/>
<path fill-rule="evenodd" clip-rule="evenodd" d="M140.459 40.1839C139.673 40.1839 138.95 39.8272 138.473 39.2065L133.941 33.2891C133.887 33.2189 133.805 33.1744 133.709 33.1633L133.702 33.1619C133.591 33.1619 133.51 33.1966 133.451 33.2555L133.23 33.4786L133.202 37.6597C133.202 39.0518 132.062 40.1839 130.662 40.1839H130.051C128.651 40.1839 127.512 39.0518 127.512 37.6597V17.7991C127.512 16.4072 128.651 15.275 130.051 15.275H130.662C132.062 15.275 133.202 16.4072 133.202 17.7991V25.7011C133.202 25.7269 133.249 25.7882 133.267 25.8071C133.286 25.825 133.348 25.8718 133.373 25.8718C133.418 25.8718 133.461 25.8551 133.493 25.8227L138.102 21.2426C138.573 20.7736 139.199 20.516 139.864 20.516C140.529 20.516 141.154 20.7736 141.625 21.2426L141.821 21.4366C142.293 21.9044 142.552 22.5263 142.552 23.1871C142.552 23.8492 142.293 24.4711 141.822 24.9379L137.669 29.0633C137.556 29.177 137.544 29.3597 137.64 29.488L142.659 36.0407C143.062 36.5666 143.236 37.2173 143.147 37.8727C143.058 38.5291 142.717 39.1106 142.186 39.5119L141.965 39.6779C141.529 40.0088 141.008 40.1839 140.459 40.1839Z" fill="#4E277A"/>
<path fill-rule="evenodd" clip-rule="evenodd" d="M105.307 40.4227C103.652 40.4227 102.305 39.0844 102.305 37.4395V26.0584C102.305 24.4137 103.652 23.0751 105.307 23.0751H105.618C107.273 23.0751 108.62 24.4137 108.62 26.0584V37.4395C108.62 39.0844 107.273 40.4227 105.618 40.4227H105.307Z" fill="#4E277A"/>
</g>
<defs>
<clipPath id="clip0_805_8512">
<rect width="211" height="55" fill="white"/>
</clipPath>
</defs>
</svg>
